<?xml version="1.0" encoding="UTF-8"?>
<svg width="274px" height="24px" viewBox="0 0 274 24" version="1.1" xmlns="http://www.w3.org/2000/svg" xmlns:xlink="http://www.w3.org/1999/xlink">
    <!-- Generator: Sketch 47.1 (45422) - http://www.bohemiancoding.com/sketch -->
    <title>Group 7</title>
    <desc>Created with Sketch.</desc>
    <defs>
        <linearGradient x1="99.688196%" y1="15.8165294%" x2="29.7150756%" y2="111.249922%" id="linearGradient-1">
            <stop stop-color="#FFFFFF" stop-opacity="0.4" offset="0%"></stop>
            <stop stop-color="#FFFFFF" offset="92%"></stop>
        </linearGradient>
    </defs>
    <g id="Tutorial-Page" stroke="none" stroke-width="1" fill="none" fill-rule="evenodd">
        <g id="Tutorial-page" transform="translate(-117.000000, -36.000000)">
            <g id="Group-7" transform="translate(117.000000, 36.000000)">
                <g id="Atlassian-Developer-white-rgb" fill-rule="nonzero">
                    <path d="M5.85239264,8.91672236 C5.7332867,8.76017656 5.5412143,8.67757906 5.34608193,8.69899197 C5.15094955,8.72040488 4.98121431,8.84270545 4.89865285,9.02138129 L0.0614038222,18.724759 C-0.0286714762,18.9048757 -0.0191267865,19.1189878 0.0866153032,19.2903177 C0.192357393,19.4616477 0.379145398,19.5656461 0.579999836,19.5650207 L7.31578714,19.5650207 C7.53657038,19.5708808 7.73997463,19.4453868 7.83438315,19.2450634 C9.28287547,16.2249058 8.40364659,11.6498155 5.85239264,8.91672236 Z" id="Shape" fill="url(#linearGradient-1)"></path>
                    <path d="M9.42558157,0.306899482 C7.0972919,4.04831515 6.82404082,8.79943173 8.70666724,12.806926 L11.7909507,19.2490201 C11.8840054,19.4434233 12.0740015,19.5658886 12.281504,19.5652146 L18.6530584,19.5652146 C18.8420479,19.5637893 19.0169436,19.4601947 19.1156107,19.2912347 C19.2142778,19.1222747 19.2227333,18.9118942 19.1379732,18.7348346 L10.3559413,0.306899482 C10.2701054,0.119330787 10.089231,1.51737364e-16 9.89076143,0 C9.69229187,-1.51737364e-16 9.51141741,0.119330787 9.42558157,0.306899482 Z" id="Shape" fill="#FFFFFF"></path>
                    <path d="M85.3990504,7.95894178 C85.3990504,10.283684 86.4337242,12.1492897 90.4781063,12.9658554 C92.8914206,13.4947342 93.3962749,13.90447 93.3962749,14.7471891 C93.3962749,15.5899082 92.8914206,16.0955396 91.1771353,16.0955396 C89.1223692,16.0566562 87.1087324,15.4856145 85.3158326,14.4333489 L85.3158326,18.2401143 C86.5335855,18.8648888 88.1424618,19.5652174 91.1410742,19.5652174 C95.3713092,19.5652174 97.0467596,17.5920924 97.0467596,14.6541994 M97.0467596,14.6541994 C97.0467596,11.8848502 95.6459277,10.5859005 91.6903113,9.69378067 C89.5072327,9.18814923 88.9774131,8.6825178 88.9774131,7.95022399 C88.9774131,7.03485674 89.7596598,6.65127427 91.1965527,6.65127427 C92.9441252,6.65127427 94.6667324,7.20630648 96.2978,7.97637734 L96.2978,4.34687353 C94.7315107,3.59976302 93.0254482,3.22940529 91.3047358,3.26296246 C87.3962761,3.26296246 85.3740851,5.0442962 85.3740851,7.95894178" id="Shape" fill="#FFFFFF"></path>
                    <polygon id="Shape" fill="#FFFFFF" points="141.837572 3.26086957 141.837572 19.5652174 145.224689 19.5652174 145.224689 7.13330192 146.652535 10.4337044 151.441218 19.5652174 155.701395 19.5652174 155.701395 3.26086957 152.314277 3.26086957 152.314277 13.7850206 151.029508 10.7302016 147.183962 3.26086957"></polygon>
                    <rect id="Rectangle-path" fill="#FFFFFF" x="117.30927" y="3.26086957" width="3.19934372" height="16.3043478"></rect>
                    <path d="M113.043478,14.6541994 C113.043478,11.8848502 111.643309,10.5859005 107.689562,9.69378067 C105.507515,9.18814923 104.977946,8.6825178 104.977946,7.95022399 C104.977946,7.03485674 105.759823,6.65127427 107.196037,6.65127427 C108.942783,6.65127427 110.664576,7.20630648 112.294873,7.97637734 L112.294873,4.34687353 C110.729324,3.59976302 109.024068,3.22940529 107.304169,3.26296246 C103.419737,3.26296246 101.39573,5.03557841 101.39573,7.95894178 C101.39573,10.283684 102.429914,12.1492897 106.472385,12.9658554 C108.884558,13.4947342 109.389174,13.90447 109.389174,14.7471891 C109.389174,15.5899082 108.884558,16.0955396 107.171083,16.0955396 C105.117288,16.0566562 103.104604,15.4856145 101.312551,14.4333489 L101.312551,18.2401143 C102.529729,18.8648888 104.137844,19.5652174 107.135039,19.5652174 C111.363275,19.5652174 113.037933,17.5920924 113.037933,14.6541994" id="Shape" fill="#FFFFFF"></path>
                    <polygon id="Shape" fill="#FFFFFF" points="57.588187 3.26086957 57.588187 19.5652174 64.9599728 19.5652174 66.1197703 16.0431907 61.197703 16.0431907 61.197703 3.26086957"></polygon>
                    <polygon id="Shape" fill="#FFFFFF" points="42.6579163 3.26086957 42.6579163 6.78589113 46.598075 6.78589113 46.598075 19.5652174 50.1688438 19.5652174 50.1688438 6.78589113 54.3888433 6.78589113 54.3888433 3.26086957"></polygon>
                    <path d="M37.0977783,3.26086957 L32.2125704,3.26086957 L26.6611977,19.5652174 L30.9153022,19.5652174 L31.6895726,16.8188752 C33.6302638,17.4050211 35.6946938,17.4050211 37.6353849,16.8188752 L38.4213424,19.5652174 L42.6579163,19.5652174 L37.0977783,3.26086957 Z M34.6551744,13.8808581 C33.9629593,13.8818407 33.2741898,13.7809817 32.6099318,13.581366 L34.6551744,6.4624397 L36.7004169,13.581366 C36.0361589,13.7809817 35.3473894,13.8818407 34.6551744,13.8808581 L34.6551744,13.8808581 Z" id="Shape" fill="#FFFFFF"></path>
                    <path d="M77.6352631,3.26086957 L72.7426653,3.26086957 L67.1862182,19.5652174 L71.4266646,19.5652174 L72.2191895,16.8188752 C74.1570926,17.4020835 76.2179113,17.4020835 78.1558145,16.8188752 L78.9424904,19.5652174 L83.1829368,19.5652174 L77.6352631,3.26086957 Z M75.1904264,13.8808581 C74.4975787,13.8818407 73.8081795,13.7809817 73.1433143,13.581366 L75.1904264,6.4624397 L77.2375385,13.581366 C76.5726733,13.7809817 75.8832742,13.8818407 75.1904264,13.8808581 L75.1904264,13.8808581 Z" id="Shape" fill="#FFFFFF"></path>
                    <path d="M134.154078,3.26086957 L129.264404,3.26086957 L123.707957,19.5652174 L127.948404,19.5652174 L128.740929,16.8188752 C130.678832,17.4020835 132.73965,17.4020835 134.677554,16.8188752 L135.46423,19.5652174 L139.704676,19.5652174 L134.154078,3.26086957 Z M131.697543,13.8808581 C131.004696,13.8818407 130.315296,13.7809817 129.650431,13.581366 L131.697543,6.4624397 L133.744655,13.581366 C133.07979,13.7809817 132.390391,13.8818407 131.697543,13.8808581 L131.697543,13.8808581 Z" id="Shape" fill="#FFFFFF"></path>
                </g>
                <path d="M170.776,14.358 C171.7,14.358 172.646,14.248 173.768,14.072 L170.842,6.152 L167.916,14.094 C168.994,14.27 169.896,14.358 170.776,14.358 Z M170.776,16.118 C169.676,16.118 168.554,15.986 167.322,15.744 L166.112,19 L163.89,19 L169.588,4.546 L172.096,4.546 L177.794,19 L175.572,19 L174.362,15.722 C173.064,15.986 171.942,16.118 170.776,16.118 Z M186.528,18.12 L186.528,17.02 C185.824,18.472 184.504,19.22 182.81,19.22 C179.906,19.22 178.454,16.734 178.454,13.5 C178.454,10.398 179.972,7.78 183.03,7.78 C184.636,7.78 185.868,8.506 186.528,9.936 L186.528,8 L188.376,8 L188.376,18.01 C188.376,21.244 186.858,23.422 182.92,23.422 C181.072,23.422 180.06,23.18 179.004,22.828 L179.004,20.98 C180.214,21.376 181.468,21.64 182.832,21.64 C185.582,21.64 186.528,20.166 186.528,18.12 Z M180.302,13.5 C180.302,16.14 181.358,17.46 183.316,17.46 C185.01,17.46 186.528,16.382 186.528,13.94 L186.528,13.06 C186.528,10.618 185.142,9.54 183.536,9.54 C181.402,9.54 180.302,10.948 180.302,13.5 Z M190.884,5.096 C190.884,5.932 191.434,6.416 192.204,6.416 C192.974,6.416 193.524,5.932 193.524,5.096 C193.524,4.26 192.974,3.776 192.204,3.776 C191.434,3.776 190.884,4.26 190.884,5.096 Z M191.236,19 L193.128,19 L193.128,8 L191.236,8 L191.236,19 Z M199.904,18.978 L199.904,17.284 C199.684,17.306 199.552,17.306 199.354,17.306 C198.54,17.306 197.88,16.954 197.88,15.964 L197.88,3.402 L195.988,3.402 L195.988,16.184 C195.988,18.208 197.132,19.066 198.936,19.066 C199.42,19.066 199.75,19.022 199.904,18.978 Z M210.398,18.56 C209.496,19.044 208.11,19.22 206.988,19.22 C202.874,19.22 201.07,16.844 201.07,13.478 C201.07,10.156 202.918,7.78 206.262,7.78 C209.65,7.78 211.014,10.134 211.014,13.478 L211.014,14.336 L202.984,14.336 C203.248,16.206 204.458,17.416 207.054,17.416 C208.33,17.416 209.408,17.174 210.398,16.822 L210.398,18.56 Z M206.174,9.496 C204.172,9.496 203.16,10.794 202.962,12.708 L209.1,12.708 C208.99,10.662 208.066,9.496 206.174,9.496 Z M227.602,16.448 C226.546,16.976 225.358,17.328 223.84,17.328 C220.408,17.328 218.318,15.128 218.318,11.806 C218.318,8.484 220.342,6.24 223.73,6.24 C225.402,6.24 226.546,6.592 227.58,7.252 L227.58,5.338 C226.546,4.59 225.138,4.326 223.73,4.326 C219.022,4.326 216.338,7.406 216.338,11.806 C216.338,16.36 219.022,19.22 223.774,19.22 C225.27,19.22 226.7,18.956 227.602,18.362 L227.602,16.448 Z M234.884,19.22 C231.584,19.22 229.648,16.778 229.648,13.478 C229.648,10.178 231.584,7.78 234.884,7.78 C238.162,7.78 240.076,10.178 240.076,13.478 C240.076,16.778 238.162,19.22 234.884,19.22 Z M234.884,9.54 C232.53,9.54 231.496,11.388 231.496,13.478 C231.496,15.568 232.53,17.46 234.884,17.46 C237.216,17.46 238.228,15.568 238.228,13.478 C238.228,11.388 237.216,9.54 234.884,9.54 Z M243.508,13.5 C243.508,16.14 244.564,17.46 246.522,17.46 C248.216,17.46 249.734,16.382 249.734,13.94 L249.734,13.06 C249.734,10.618 248.348,9.54 246.742,9.54 C244.608,9.54 243.508,10.948 243.508,13.5 Z M249.734,19 L249.734,17.02 C249.03,18.472 247.71,19.22 246.016,19.22 C243.09,19.22 241.616,16.734 241.616,13.5 C241.616,10.398 243.156,7.78 246.236,7.78 C247.842,7.78 249.074,8.506 249.734,9.936 L249.734,8 L251.626,8 L251.626,19 L249.734,19 Z M262.252,17.02 C261.57,17.262 260.866,17.416 259.744,17.416 C256.862,17.416 255.674,15.612 255.674,13.478 C255.674,11.344 256.84,9.54 259.7,9.54 C260.734,9.54 261.482,9.738 262.186,10.068 L262.186,8.308 C261.328,7.912 260.558,7.78 259.568,7.78 C255.652,7.78 253.826,10.156 253.826,13.478 C253.826,16.844 255.652,19.22 259.568,19.22 C260.58,19.22 261.592,19.066 262.252,18.714 L262.252,17.02 Z M273.758,12.554 C273.758,9.452 272.394,7.78 269.93,7.78 C268.346,7.78 267.026,8.528 266.3,9.826 L266.3,3.402 L264.408,3.402 L264.408,19 L266.3,19 L266.3,12.884 C266.3,10.662 267.51,9.496 269.27,9.496 C271.074,9.496 271.866,10.618 271.866,12.884 L271.866,19 L273.758,19 L273.758,12.554 Z" id="Agile-Coach" fill="#FFFFFF"></path>
            </g>
        </g>
    </g>
</svg>