<?xml version="1.0" encoding="UTF-8"?>
<svg width="9px" height="15px" viewBox="0 0 9 15" version="1.1" xmlns="http://www.w3.org/2000/svg" xmlns:xlink="http://www.w3.org/1999/xlink">
    <!-- Generator: Sketch 47 (45396) - http://www.bohemiancoding.com/sketch -->
    <title>arrow</title>
    <desc>Created with Sketch.</desc>
    <defs></defs>
    <g id="chapter" stroke="none" stroke-width="1" fill="none" fill-rule="evenodd">
        <g id="[desktop]-chapter" transform="translate(-410.000000, -2243.000000)" fill-rule="nonzero" fill="#418DC8">
            <g id="nav-down" transform="translate(329.000000, 2209.000000)">
                <g id="previous" transform="translate(68.000000, 23.000000)">
                    <g id="&lt;">
                        <path d="M13.8347002,25.6416503 C14.0057389,25.8128794 14.2378315,25.9090909 14.4798513,25.9090909 C14.7218712,25.9090909 14.9539638,25.8128794 15.1250025,25.6416503 L21.3234685,19.4477437 C21.4946976,19.276705 21.5909091,19.0446124 21.5909091,18.8025925 C21.5909091,18.5605726 21.4946976,18.3284801 21.3234685,18.1574414 L15.1250025,11.9635347 C14.8965651,11.7235218 14.5559106,11.6263115 14.2352091,11.7096205 C13.9145077,11.7929295 13.6642344,12.0436458 13.5814926,12.3644941 C13.4987509,12.6853424 13.5965634,13.0258244 13.8369799,13.253837 L19.3902948,18.8025925 L13.8369799,24.3513481 C13.6654483,24.5220841 13.5688265,24.7540067 13.5683989,24.9960267 C13.5679713,25.2380467 13.663773,25.4703093 13.8347002,25.6416503 Z" id="arrow" transform="translate(17.571745, 18.794698) scale(-1, 1) translate(-17.571745, -18.794698) "></path>
                    </g>
                </g>
            </g>
        </g>
    </g>
</svg>