<?xml version="1.0" encoding="UTF-8"?>
<svg width="82px" height="82px" viewBox="0 0 82 82" version="1.1" xmlns="http://www.w3.org/2000/svg" xmlns:xlink="http://www.w3.org/1999/xlink">
    <!-- Generator: Sketch 47 (45396) - http://www.bohemiancoding.com/sketch -->
    <title>icon-donze-empezar</title>
    <desc>Created with Sketch.</desc>
    <defs></defs>
    <g id="home" stroke="none" stroke-width="1" fill="none" fill-rule="evenodd">
        <g id="[desktop]-home" transform="translate(-470.000000, -1323.000000)" fill="#75AFDC">
            <g id="chapters" transform="translate(-92.000000, 792.000000)">
                <g id="cards" transform="translate(423.000000, 488.000000)">
                    <g id="desktop-/-card-copy-2">
                        <g id="title" transform="translate(55.000000, 43.000000)">
                            <path d="M125,82 C147.643675,82 166,63.6436747 166,41 C166,18.3563253 147.643675,0 125,0 C102.356325,0 84,18.3563253 84,41 C84,63.6436747 102.356325,82 125,82 Z M137.471123,28.0289259 L131.706879,34.6396673 C131.303785,35.0830707 131.303785,35.7683304 131.706879,36.2117338 L137.471123,42.8627846 L115.945904,42.8627846 L115.945904,28.0289259 L137.471123,28.0289259 Z M113.52734,24.9654116 L113.52734,60.0345884 C113.52734,60.7198481 114.051362,61.2438703 114.736622,61.2438703 C115.421882,61.2438703 115.945904,60.7198481 115.945904,60.0345884 L115.945904,45.2813485 L140.131543,45.2813485 C140.615256,45.2813485 141.01835,44.9991827 141.219897,44.5557793 C141.421444,44.1123759 141.340825,43.6286632 141.01835,43.2658786 L134.206061,35.4458553 L141.01835,27.5855225 C141.340825,27.222738 141.421444,26.7390252 141.219897,26.2956218 C141.01835,25.8522184 140.574946,25.5700526 140.131543,25.5700526 L115.945904,25.5700526 L115.945904,24.9654116 C115.945904,24.2801519 115.421882,23.7561297 114.736622,23.7561297 C114.051362,23.7561297 113.52734,24.2801519 113.52734,24.9654116 L113.52734,24.9654116 Z" id="icon-donze-empezar"></path>
                        </g>
                    </g>
                </g>
            </g>
        </g>
    </g>
</svg>