<?xml version="1.0" encoding="UTF-8"?>
<svg width="202px" height="26px" viewBox="0 0 202 26" version="1.1" xmlns="http://www.w3.org/2000/svg" xmlns:xlink="http://www.w3.org/1999/xlink">
    <!-- Generator: Sketch 47 (45396) - http://www.bohemiancoding.com/sketch -->
    <title>logo</title>
    <desc>Created with Sketch.</desc>
    <defs></defs>
    <g id="chapter" stroke="none" stroke-width="1" fill="none" fill-rule="evenodd">
        <g id="[desktop]-chapter" transform="translate(-330.000000, -18.000000)">
            <g id="top">
                <g id="desktop-/-header-inner-pages">
                    <g id="logo" transform="translate(330.000000, 18.000000)">
                        <g id="symbols">
                            <path d="M0,19.9612048 C0,23.2974951 2.70885281,26 6.0499087,26 L6.0499087,26 C9.3909646,26 12.0998174,23.2974951 12.0998174,19.9612048 L12.0998174,19.9612048 C12.0998174,16.6262863 9.3909646,13.9224096 6.0499087,13.9224096 L6.0499087,13.9224096 C2.70885281,13.9224096 0,16.6262863 0,19.9612048 M5.29648754,18.2476521 C5.29648754,18.1090972 5.40918461,17.9966072 5.54799442,17.9966072 L6.5526476,17.9966072 C6.6914574,17.9966072 6.80415448,18.1090972 6.80415448,18.2476521 L6.80415448,18.7072151 L5.29648754,18.7072151 L5.29648754,18.2476521 Z M8.39153398,18.7072151 L7.30579389,18.7072151 L7.30579389,18.2476521 C7.30579389,17.8333594 6.96770267,17.4958893 6.5526476,17.4958893 L5.54799442,17.4958893 C5.13293935,17.4958893 4.79484813,17.8333594 4.79484813,18.2476521 L4.79484813,18.7072151 L3.70773369,18.7072151 C3.39438085,18.7072151 3.14012526,18.9555163 3.14012526,19.2614344 L3.14012526,22.1024941 C3.14012526,22.4084121 3.39438085,22.6567134 3.70773369,22.6567134 L8.39153398,22.6567134 C8.70626117,22.6567134 8.96051676,22.4084121 8.96051676,22.1024941 L8.96051676,19.2614344 C8.96051676,18.9555163 8.70626117,18.7072151 8.39153398,18.7072151 L8.39153398,18.7072151 Z" id="suitcase" fill="#B4C624"></path>
                            <path d="M25.0277692,19.9612048 C25.0277692,23.2961233 22.3189164,26 18.9778605,26 C15.6368046,26 12.9279518,23.2961233 12.9279518,19.9612048 C12.9279518,16.6262863 15.6368046,13.9224096 18.9778605,13.9224096 C22.3189164,13.9224096 25.0277692,16.6262863 25.0277692,19.9612048 M18.2693807,22.6578108 C17.9230433,22.6578108 17.60007,22.6742728 17.2798454,22.6523235 C17.0049745,22.6344897 16.7988213,22.6111686 16.7946983,22.2929041 C16.7878265,21.6371694 16.7905752,20.7399926 16.797447,20.0842579 C16.7988213,20.0156664 16.8469237,19.9237538 16.8977749,19.8798553 C17.5038652,19.3667909 18.1127043,18.8605857 18.7215433,18.3516368 C18.8837172,18.2171974 19.0335218,18.2075946 19.1943213,18.3392903 C19.8169039,18.8537265 20.4367378,19.3722782 21.053823,19.8949454 C21.0978023,19.9319848 21.1321612,20.0142946 21.1321612,20.0746551 C21.1376586,20.737249 21.1376586,21.639913 21.1335356,22.301135 C21.1307869,22.6043095 20.9466233,22.6248869 20.6758755,22.6454644 C20.3226664,22.6742728 19.9653342,22.6523235 19.5942585,22.6523235 L19.5942585,21.4245357 C19.5942585,21.3463414 19.5956328,21.269519 19.5942585,21.1913247 C19.5887611,20.9087277 19.4224642,20.7139279 19.1640855,20.6974659 C19.0239013,20.6906067 18.8823428,20.6947222 18.7407843,20.6974659 C18.4466724,20.704325 18.2735038,20.8936376 18.270755,21.2173894 C18.266632,21.6207074 18.2693807,22.0226536 18.2693807,22.4245997 L18.2693807,22.6578108 Z M17.7036964,18.132144 C17.7146912,17.9908455 17.7036964,17.6616063 17.6720862,17.6067331 C17.6102403,17.4983586 17.5456456,17.4668065 17.4205793,17.4668065 C17.3257489,17.4668065 17.1512058,17.462691 17.0563754,17.4681783 C16.9010733,17.4736656 16.8268582,17.5559754 16.8241095,17.7274542 C16.8213607,17.9249977 16.8172377,18.4613832 16.8254838,18.6589267 C16.8309812,18.7810195 16.7979967,18.8605857 16.7045406,18.9346645 C16.4750234,19.1143742 16.2592497,19.3146614 16.0338556,19.4984866 C15.9349021,19.5807964 15.8826766,19.672709 15.9651379,19.7893145 C16.0462248,19.9072919 16.147927,20.0924889 16.2345114,20.0197819 C17.0591241,19.3407261 18.7083495,17.9839864 18.7083495,17.9839864 C18.7083495,17.9839864 18.8787695,17.8728681 18.9804717,17.87424 C19.0807996,17.87424 19.194871,17.9839864 19.194871,17.9839864 C19.194871,17.9839864 20.787748,19.2927121 21.609612,19.9662806 C21.65634,20.0046918 21.7154373,20.0540777 21.7662884,20.051334 C21.8198882,20.0485904 22.0164209,19.7920582 22.0232927,19.7467878 C22.0356619,19.6809399 22.0095491,19.5766809 21.9641954,19.5368978 C21.7470474,19.3393543 21.5189046,19.1596446 21.2935104,18.9744475 C20.6420664,18.4380621 19.9906223,17.9016766 19.3378039,17.3652911 C19.0711791,17.1457983 18.8966361,17.1457983 18.6300113,17.3639192 C18.3249046,17.6163359 18.0225466,17.8687526 17.7036964,18.132144" id="house" fill="#DD0B15"></path>
                            <path d="M12.0998174,7.03325304 C12.0998174,10.3681715 9.3909646,13.0720482 6.0499087,13.0720482 C2.70885281,13.0720482 0,10.3681715 0,7.03325304 C0,3.69833456 2.70885281,0.994457827 6.0499087,0.994457827 C9.3909646,0.994457827 12.0998174,3.69833456 12.0998174,7.03325304 M7.64086152,4.96467073 C7.39760077,4.96467073 7.20106807,4.76849906 7.20106807,4.52568517 C7.20106807,4.28287127 7.39760077,4.0866996 7.64086152,4.0866996 C7.88412228,4.0866996 8.08065498,4.28287127 8.08065498,4.52568517 C8.08065498,4.76849906 7.88412228,4.96467073 7.64086152,4.96467073 M8.89702158,5.19513816 C8.89702158,5.19513816 8.58366874,4.33774447 8.14387529,3.79449983 C7.70408183,3.25125519 6.94956119,3.87818145 6.94956119,3.87818145 L6.30498891,4.34871911 C6.35996309,4.42554158 6.4080655,4.49276125 6.43280388,4.52842883 C6.90145878,5.09362274 7.00590972,5.79737148 7.01003279,5.82755174 L6.94956119,9.15835473 C6.93444329,9.64398251 6.78326429,9.9691062 6.61834174,10.188599 L7.51579526,10.3765397 C8.18510592,10.5439029 8.4366128,9.79214014 8.4366128,9.79214014 C8.4366128,9.79214014 8.81318595,7.47237579 9.00147252,6.55187792 C9.18975909,5.63275189 8.89702158,5.19513816 8.89702158,5.19513816 M4.85669409,4.6931856 C4.62580252,4.6931856 4.43751595,4.50661673 4.43751595,4.27477748 C4.43751595,4.04431006 4.62580252,3.85774119 4.85669409,3.85774119 C5.08758565,3.85774119 5.27587222,4.04431006 5.27587222,4.27477748 C5.27587222,4.50661673 5.08758565,4.6931856 4.85669409,4.6931856 M6.22829992,4.67260815 C6.22829992,4.67260815 5.57960458,3.62727377 5.23326723,3.43933307 C5.23326723,3.43933307 4.9199144,2.97977005 4.37567,3.51204006 C3.99359943,3.88517779 3.21296605,4.79744467 3.21296605,4.79744467 C3.21296605,4.79744467 2.7731726,5.20487815 2.7731726,5.92508884 L3.37101683,10.125632 C3.37101683,10.125632 3.46447293,10.7525583 4.12416312,10.7210062 L6.07024915,10.3451248 C6.07024915,10.3451248 6.66809338,10.0940799 6.69970353,9.15437642 L6.76154949,5.8633565 C6.76154949,5.8633565 6.66809338,5.20487815 6.22829992,4.67260815" id="tags" fill="#418DC8"></path>
                            <path d="M25.0277692,7.03325304 C25.0277692,10.3681715 22.3189164,13.0720482 18.9778605,13.0720482 C15.6368046,13.0720482 12.9279518,10.3681715 12.9279518,7.03325304 C12.9279518,3.69833456 15.6368046,0.994457827 18.9778605,0.994457827 C22.3189164,0.994457827 25.0277692,3.69833456 25.0277692,7.03325304 M17.1567033,8.55845352 C17.1567033,8.92747576 16.857094,9.22790651 16.4873926,9.22790651 C16.1163169,9.22790651 15.8167076,8.92747576 15.8167076,8.55845352 C15.8167076,8.18943127 16.1163169,7.89037236 16.4873926,7.89037236 C16.857094,7.89037236 17.1567033,8.18943127 17.1567033,8.55845352 M22.0132599,8.55845352 C22.0132599,8.93982223 21.7040301,9.24848395 21.3219596,9.24848395 C20.9412634,9.24848395 20.6320336,8.93982223 20.6320336,8.55845352 C20.6320336,8.1770848 20.9412634,7.86842308 21.3219596,7.86842308 C21.7040301,7.86842308 22.0132599,8.1770848 22.0132599,8.55845352 M17.05184,6.45845631 C17.05184,6.45845631 17.334957,5.76842587 17.7115302,5.48720074 C17.7115302,5.48720074 19.0309105,5.33081213 20.7570999,5.54893309 C20.7570999,5.54893309 21.1652832,5.83153005 21.3851799,6.45845631 C21.3851799,6.45845631 19.7840568,6.42690422 17.05184,6.45845631 L17.05184,6.45845631 Z M22.8296265,7.08538257 C22.8296265,7.08538257 22.6729501,6.67794909 22.2015465,6.61484492 C22.2015465,6.61484492 21.8565835,5.51875283 21.2285035,4.92200682 C21.2285035,4.92200682 19.4693296,4.54612543 17.3665672,4.82872239 C17.3665672,4.82872239 16.5804364,5.61203726 16.1104071,6.52156048 L15.1675999,6.77260536 C15.1675999,6.77260536 14.8226369,6.99209814 14.8226369,7.39815979 C14.8226369,7.8069651 14.8542471,8.21302675 14.8542471,8.21302675 C14.8542471,8.21302675 14.9751903,8.58753631 15.4878245,8.61634474 C15.4864502,8.59713912 15.4823271,8.5779335 15.4823271,8.55872788 C15.4823271,8.00588043 15.9331154,7.55592023 16.4869803,7.55592023 C17.0408452,7.55592023 17.4916335,8.00588043 17.4916335,8.55872788 C17.4916335,8.58067716 17.486136,8.59988278 17.4847617,8.62183206 L20.3241782,8.62183206 C20.3228038,8.59988278 20.3173064,8.58067716 20.3173064,8.55872788 C20.3173064,8.00588043 20.7680947,7.55592023 21.3219596,7.55592023 C21.8771988,7.55592023 22.3279871,8.00588043 22.3279871,8.55872788 C22.3279871,8.58067716 22.3224897,8.59988278 22.3211153,8.62183206 L22.734796,8.62183206 C22.734796,8.62183206 23.1745895,8.62183206 23.2378098,8.27613092 L22.8296265,7.08538257 Z" id="car" fill="#F9CA00"></path>
                        </g>
                        <g id="type" transform="translate(34.000000, 0.000000)">
                            <path d="M4.68084301,5.96674696 C4.68084301,5.96674696 1.46528197,5.96674696 0.896693496,7.80637086 C0.896693496,7.80637086 0.960176676,8.75704898 1.71645455,9.64462292 C2.03801066,10.0205043 2.4741125,13.1318145 2.85225143,21.0568758 C2.85225143,21.0568758 2.66318196,23.8471778 4.55525672,24.3547549 C6.44733148,24.862332 12.5637978,24.9885403 16.9786389,12.8149218 C16.9786389,12.8149218 18.1130557,9.39083439 16.9786389,7.42500215 C15.842842,5.4591699 13.2579726,6.02985114 12.8784536,6.34674385 C12.8784536,6.34674385 12.3926692,6.59641689 12.4368314,8.12189173 C12.5003146,10.2784083 11.1133452,15.4145395 7.20360936,20.2337779 C7.20360936,20.2337779 6.69850406,20.5506706 6.88757353,19.2817279 C7.076643,18.0141571 7.77081776,10.4677209 6.76198724,7.8681032 C6.76198724,7.8681032 6.32036512,6.15605949 4.68084301,5.96674696" id="v" fill="#418DC8"></path>
                            <path d="M19.6825084,6.72811256 C20.4498268,6.11216093 21.3054697,5.96674696 21.9416815,5.96674696 C22.5075099,5.96811879 22.8994495,6.08198068 22.8994495,6.08198068 C22.8994495,6.08198068 24.7915243,6.21093269 24.7280411,8.99300372 C24.8550074,10.6529179 23.3410716,19.2776125 23.088519,20.8949999 C22.8359663,22.5123874 23.0250358,22.1227877 23.0250358,22.1227877 C23.90828,21.8635118 23.8447968,22.7702914 23.8447968,22.7702914 C23.8447968,22.7702914 23.5922442,24.6455828 20.6292358,24.515259 C17.6662274,24.3876788 17.8759979,21.2612785 17.8759979,21.2612785 C19.51552,12.5282094 19.7459916,8.216548 19.7459916,8.216548 C18.4859885,7.76384413 19.6825084,6.72811256 19.6825084,6.72811256 Z M25.5258514,1.8325136 C25.8101456,3.135752 24.7833742,4.46093968 23.2349367,4.79429435 C21.6864991,5.12764901 20.2001647,4.34159048 19.9172505,3.03972391 C19.6329563,1.7364855 20.6597277,0.409925994 22.2081652,0.0765713287 C23.7566028,-0.256783336 25.2429372,0.529275195 25.5258514,1.8325136 Z" id="i" fill="#F9CA00"></path>
                            <path d="M25.8615132,7.80499903 C25.8615132,7.80499903 25.9249964,8.75704898 26.6812742,9.64325109 L26.6812742,9.64325109 C27.0014503,10.0191325 27.4375521,13.1304427 27.8170711,21.0568758 L27.8170711,21.0568758 C27.8170711,21.0568758 27.6280016,23.845806 29.5200764,24.3533831 L29.5200764,24.3533831 C31.4107711,24.8609601 37.5286175,24.9885403 41.9420785,12.81355 L41.9420785,12.81355 C41.9420785,12.81355 43.0778754,9.38946256 41.9420785,7.42500215 L41.9420785,7.42500215 C40.8076617,5.4591699 38.2214122,6.02985114 37.8432732,6.34674385 L37.8432732,6.34674385 C37.8432732,6.34674385 37.3574889,6.59641689 37.4016511,8.12189173 L37.4016511,8.12189173 C37.4651343,10.2784083 36.0781648,15.4145395 32.167049,20.2324061 L32.167049,20.2324061 C32.167049,20.2324061 31.6633237,20.5492988 31.8523932,19.2817279 L31.8523932,19.2817279 C32.0414627,18.0127853 32.7356374,10.4677209 31.7268069,7.8681032 L31.7268069,7.8681032 C31.7268069,7.8681032 31.2851848,6.15605949 29.6442826,5.96674696 L29.6442826,5.96674696 C29.6442826,5.96674696 26.4287216,5.96674696 25.8615132,7.80499903" id="v" fill="#B4C624"></path>
                            <path d="M56.520173,22.1654226 C57.3440743,21.911634 57.2847313,22.8005798 57.2847313,22.8005798 C57.2847313,22.8005798 57.0501196,24.6429474 54.283081,24.5153672 C51.5160424,24.3891588 51.927303,21.5947413 51.927303,21.5947413 C51.9369635,21.5426118 51.9438638,21.4973414 51.9535243,21.4465837 L51.9286831,21.4671612 C51.6775105,22.1023184 50.2270579,24.2615787 46.8845305,24.3891588 C44.2982809,24.6429474 41.8389978,22.6743715 41.8389978,19.9416863 C41.8389978,17.210373 43.4854202,14.3857752 46.7575641,13.6532181 C49.5963663,13.0180608 52.686341,14.2252711 52.686341,14.2252711 C53.6316884,10.4774318 49.5328831,9.71469442 46.9466336,10.7943246 C44.3617641,11.8739547 44.5508336,8.82574865 44.5508336,8.82574865 C44.9924557,5.90375097 50.2270579,5.96685514 50.2270579,5.96685514 C51.746514,6.06837056 52.9388937,6.30981262 53.884241,6.62944898 C55.0876613,7.20973303 58.0147879,9.03289496 57.8629803,12.9631876 C57.4751809,16.4805595 56.7534047,19.782554 56.5781359,20.9595841 C56.3435242,22.5467913 56.520173,22.1654226 56.520173,22.1654226 Z M51.4448241,19.3004085 C53.000162,17.4799902 52.4743556,16.6760979 52.1804009,16.3784108 C52.1804009,16.3784108 51.424123,15.6156734 49.5734504,16.0395688 C47.9656698,16.4085911 46.4834756,17.7763055 46.9043967,19.2798311 C47.3018566,20.7037905 49.8894862,21.1221986 51.4448241,19.3004085 Z" id="a" fill="#DD0B15"></path>
                            <path d="M61.5478975,7.67148482 C61.5478975,7.67148482 61.2125407,13.7555504 59.8669734,22.0962762 C59.8669734,22.0962762 59.4032701,24.2665111 61.2111607,24.2665111 C63.0190512,24.2665111 63.0728739,22.4858759 63.1032354,21.4158486 C63.2716039,15.500518 63.8608934,13.5003901 63.8608934,13.5003901 C63.8608934,13.5003901 66.2566934,8.77717971 69.9566587,8.77717971 C73.6552439,8.77717971 72.6477934,13.7130237 72.6477934,13.7130237 L71.4692144,21.8822707 C71.4692144,21.8822707 70.881305,24.1800858 72.7733797,24.4791447 C74.6654545,24.7768318 75.0863756,23.4571314 74.5384881,22.8617573 C74.5384881,22.8617573 75.0021914,18.5638142 75.5486987,14.9901973 C76.0952061,11.4152086 76.0952061,6.60831665 71.4278123,6.09662409 C66.7617987,5.58630337 64.3646186,9.58655935 64.3646186,9.58655935 C64.3646186,9.58655935 64.491585,8.56454608 64.5757692,7.45747935 C64.6585733,6.35178446 63.6083407,6.01157064 62.934867,5.96904391 C61.9384571,5.90593974 60.0767439,7.15979227 61.5478975,7.67148482 M98.496843,7.67148482 C98.496843,7.67148482 98.1601061,13.7555504 96.8145387,22.0962762 C96.8145387,22.0962762 96.3522156,24.2665111 98.1601061,24.2665111 C99.9679967,24.2665111 100.021819,22.4858759 100.052181,21.4158486 C100.220549,15.500518 100.808459,13.5003901 100.808459,13.5003901 C100.808459,13.5003901 103.205639,8.77717971 106.904224,8.77717971 C110.604189,8.77717971 109.595359,13.7130237 109.595359,13.7130237 L108.41816,21.8822707 C108.41816,21.8822707 107.83025,24.1800858 109.722325,24.4791447 C111.6144,24.7768318 112.035321,23.4571314 111.487434,22.8617573 C111.487434,22.8617573 111.949757,18.5638142 112.496264,14.9901973 C113.042771,11.4152086 113.042771,6.60831665 108.376758,6.09662409 C103.709364,5.58630337 101.313564,9.58655935 101.313564,9.58655935 C101.313564,9.58655935 101.44053,8.56454608 101.523335,7.45747935 C101.607519,6.35178446 100.557286,6.01157064 99.8838125,5.96904391 C98.8874026,5.90593974 97.0243092,7.15979227 98.496843,7.67148482 M93.0295131,22.8175726 C93.0295131,22.8175726 93.3648699,16.7321352 94.7118174,8.39278124 C94.7118174,8.39278124 95.1741406,6.22254634 93.36625,6.22254634 C91.5583595,6.22254634 91.5045368,8.00318154 91.4741753,9.07458069 C91.3058068,14.9885394 90.7178974,16.9886674 90.7178974,16.9886674 C90.7178974,16.9886674 88.3207173,21.7118777 84.620752,21.7118777 C80.9221668,21.7118777 81.9309973,16.7746619 81.9309973,16.7746619 L83.1081963,8.60541487 C83.1081963,8.60541487 83.6961057,6.30897162 81.804031,6.0099127 C79.9119562,5.71222562 79.4910351,7.03055415 80.0389226,7.62730015 C80.0389226,7.62730015 79.5765994,11.9238714 79.030092,15.4988601 C78.4835847,19.0738488 78.4835847,23.8821126 83.1495983,24.3924333 C87.8169921,24.9027541 90.2127921,20.9024981 90.2127921,20.9024981 C90.2127921,20.9024981 90.0858257,21.9245113 90.0030216,23.0302062 C89.9188374,24.137273 90.96907,24.4774868 91.6425437,24.5200135 C92.6389536,24.5831177 94.5020469,23.3292652 93.0295131,22.8175726 M123.800617,9.36412426 C123.800617,9.36412426 125.146184,9.36412426 125.818278,10.3641883 C126.491752,11.3642522 125.692692,12.0734883 127.038259,12.6153611 C128.383826,13.1572339 129.392657,10.9485878 128.425228,8.86340634 C127.4578,6.77959673 122.492311,6.04703956 118.755084,8.53005168 C114.929533,11.0734243 112.071409,21.1193346 118.713682,24.4542531 C124.599677,26.4969078 127.290812,22.2030803 127.290812,22.2030803 C127.290812,22.2030803 127.584766,21.4115344 126.869891,20.7036702 C126.155015,19.9944341 125.65129,21.4115344 125.398737,21.4540611 C125.146184,21.495216 121.277851,23.7875438 119.301592,21.495216 C116.635298,18.4017396 117.409517,14.7416975 118.923453,12.1983248 C120.173795,10.0980533 122.286681,9.23928773 123.800617,9.36412426 M132.094566,8.66828319 C132.094566,8.66828319 132.262935,8.95911113 132.262935,9.41867414 C132.262935,9.87686533 130.874585,21.6746024 130.748999,22.2576302 C130.623413,22.8420297 130.748999,25.1755123 132.55689,24.8010028 C134.239194,24.6747944 134.406182,23.4675841 133.608502,23.1328576 C133.608502,23.1328576 133.481536,23.1328576 133.524318,22.5498299 C133.56572,21.9654304 135.248024,9.08531948 135.248024,9.08531948 C135.248024,9.08531948 135.583381,7.70937409 133.859675,7.08381966 C132.135969,6.45826522 131.422473,8.41723832 132.094566,8.66828319 M136.16649,3.64202018 C135.729008,4.63522503 134.642894,5.12359647 133.737569,4.72988129 C132.833623,4.33616611 132.455484,3.21263742 132.892966,2.21943258 C133.329068,1.2248559 134.417943,0.737856289 135.321888,1.13019964 C136.225833,1.52391482 136.603972,2.64744351 136.16649,3.64202018 M136.920099,13.8919211 C137.147811,12.6298376 137.53009,11.4706414 138.065557,10.4198197 C138.598263,9.36625431 139.270357,8.48553951 140.077698,7.77218796 C140.886418,7.06295191 141.809684,6.54988753 142.850256,6.23848214 C143.890829,5.92844858 145.036286,5.8831782 146.286629,6.10541464 C147.525931,6.32490742 148.588584,6.76252116 149.473208,7.41276853 C150.356452,8.06575956 151.054767,8.86690822 151.569533,9.81209902 C152.081539,10.7586617 152.412755,11.8177143 152.556283,12.9920007 C152.70119,14.1635435 152.659788,15.3817284 152.432076,16.6451837 C152.204365,17.9072672 151.816565,19.0609762 151.272818,20.1049387 C150.727691,21.151645 150.047317,22.0296161 149.235836,22.7374803 C148.422976,23.44946 147.487289,23.9570371 146.432916,24.2588397 C145.375783,24.5606422 144.227565,24.603169 142.988263,24.3836762 C141.737921,24.1628116 140.678028,23.7279415 139.809964,23.0845533 C138.941901,22.4397932 138.254626,21.6455037 137.745381,20.6989411 C137.236135,19.7564939 136.914579,18.7001849 136.782093,17.5341295 C136.645466,16.3694459 136.691008,15.1540046 136.920099,13.8919211 M139.866001,14.8097679 C139.701773,15.7151756 139.661751,16.5890313 139.739035,17.4313348 C139.816319,18.2736384 140.008149,19.0336321 140.317284,19.7099443 C140.622279,20.3848846 141.0432,20.9487067 141.575907,21.4000387 C142.108614,21.8527426 142.747586,22.1421987 143.490063,22.2752662 C144.2353,22.40559 144.934995,22.3534605 145.591908,22.1133903 C146.250201,21.8746918 146.842251,21.4892076 147.373577,20.962425 C147.904904,20.4342705 148.356187,19.7881386 148.732946,19.026773 C149.104184,18.2640356 149.371918,17.429963 149.534766,16.5245552 C149.700374,15.6095447 149.741776,14.7302017 149.658972,13.8865264 C149.573408,13.0414791 149.376058,12.2814854 149.062782,11.6038014 C148.748126,10.9247456 148.328585,10.3595517 147.794499,9.90273233 C147.263172,9.44454115 146.62696,9.15096955 145.881723,9.01927388 C145.139246,8.88757821 144.43817,8.94382324 143.779877,9.18938079 C143.121585,9.43631017 142.529535,9.82179437 142.005109,10.3513207 C141.480682,10.8794752 141.03354,11.5256071 140.666442,12.2910882 C140.299343,13.0551974 140.03023,13.8947573 139.866001,14.8097679 M167.069852,8.8449475 C167.069852,8.8449475 165.598698,7.09449255 162.276872,6.96965603 C158.956425,6.84344768 156.222508,8.13708327 155.129494,10.429411 C154.036479,12.7217388 155.270261,15.051106 156.916683,16.1225051 C158.745275,17.3132535 163.454071,18.5986581 163.663841,19.6837755 C163.663841,19.6837755 164.674052,21.559067 161.015488,22.5179761 C157.358305,23.4768852 155.466231,21.559067 155.466231,21.559067 C155.466231,21.559067 154.835539,20.5178481 153.952295,21.6852753 C153.070431,22.8513307 154.541584,24.2272761 155.507633,24.7266222 C156.475061,25.2273401 161.64756,26.1149141 164.883822,23.6442484 C167.921354,21.3258559 166.363256,18.373678 166.154866,18.0663881 C164.988707,16.3419979 160.006658,15.0579651 159.312483,14.4310388 C159.312483,14.4310388 157.547375,13.5215156 157.736444,12.0138746 C157.957255,10.2634196 160.8485,8.76126587 164.378717,10.0535296 C164.378717,10.0535296 165.136375,10.3868843 165.555916,10.8876022 C165.555916,10.8876022 165.724284,11.2634836 166.22939,11.0961204 C166.733115,10.9287571 167.82613,9.88753822 167.069852,8.8449475" id="nuncios" fill="#9E9CA3"></path>
                        </g>
                    </g>
                </g>
            </g>
        </g>
    </g>
</svg>